<svg width="199" height="408" fill="none" xmlns="http://www.w3.org/2000/svg"><path fill-rule="evenodd" clip-rule="evenodd" d="M376.911 353c-17.642-30.971-41.305-59.647-64.071-86.963 6.727 1.839 15.603.405 21.735-2.643 6.89-3.424 10.378-9.379 13.165-16.26.396-.976 2.985-11.039 4.876-10.497 3.481 1 4.485 23.186 4.86 25.897 1.339 9.679 3.409 19.162 5.579 28.687 4.681 20.53 9.77 41.119 13.856 61.779Zm-75.344-105.133c-4.919.345-8.638-6.605-11.81-10.195 5.312-.205 27.981-6.469 30.691-1.062 4.401 8.794-14.397 10.931-18.881 11.257ZM190.95 80.224c-.021 2.934-.022 14.254-4.603 10.744-3.1-2.378-4.79-13.025-5.751-16.291-1.961-6.655-4.974-14.853-4.63-21.876.653-13.292 9.382-4.224 11.372 2.867 2.197 7.817 3.649 16.408 3.612 24.556Zm35.006 58.229c5.789-3.624 3.466 3.139 1.289 6.365-6.12 9.076-7.474-1.438-1.289-6.365Zm-13.039-31.085c-1.226-6.595-.618-15.543 1.267-21.847 1.48-4.952 6.215-9.564 9.12-3.237 2.412 5.252-2.151 19.059-4.582 24.227-1.977 4.203-4.694 7.774-5.805.857Zm-25.15 2.02c1.083 12.654-9.944 17.286-9.583 2.839.223-8.84 7.648-15.369 9.583-2.839Zm23.318 76.264c.34 5.25-10.707 23.622-11.503 13.485-.227-2.891 10.917-18.218 11.503-13.485Zm-32.395-17.711c-3.78 2.448-14.162 10.627-18.091 8.972-6.279-2.646.891-10.061 3.681-11.968 3.047-2.085 11.4-7.19 15.601-6.549 7.705 1.179 2.705 6.778-1.191 9.545Zm-56.753-75.668c-9.373 3.991-12.668-7.157-14.692-13.814-1.323-4.355-5.998-13.461-1.087-16.57 8.826-5.594 18.677 23.167 15.779 30.384Zm31.066 1.313c-1.431-4.468-2.547-9.031-3.948-13.507-.835-2.66-5.201-12.033-4.675-14.26 1.664-7.069 7.379-3.539 10.702 1.642 3.41 5.32 6.975 16.417 6.616 22.52-.333 5.661-5.624 12.24-8.695 3.605Zm-17.289-46.98c-2.46-7.772 2.859-14.306 8.957-5.647 6.9 9.792-3.584 20.144-8.957 5.646Zm13.491 137.367c.358 7.107-23.763 17.821-29.215 14.547-7.178-4.309 7.563-9.672 11.661-11.8 3.461-1.794 16.544-10.895 17.554-2.747Zm-42.752-10.596c-6.121 1.721-12.396 4.112-18.692 4.976-8.647 1.183-8.574-3.666-2.104-8.759 5.655-4.452 16.23-5.527 22.978-8.222 5.391-2.154 21.029-14.49 24.93-10.67 8.792 8.607-21.333 20.993-27.112 22.675Zm1.633 27.699c.244 9.663-25.368 12.899-31.095 13.464 3.843-2.731 29.344-26.786 31.095-13.464Zm-48.47-48.716c-17.358-.577.081-13.201 5.932-15.533 4.246-1.695 14.239-5.459 18.559-1.91 11.336 9.314-20.026 17.613-24.49 17.443Zm1.971-35.31c.398-5.99 29.287-15.016 30.92-9.534 1.285 4.316-29.534 22.102-30.92 9.534Zm41.56 7.226c11.461-7.844 26.976-.473 9.793 8.622-3.372 1.782-12.198 6.596-15.938 3.852-5.283-3.876 3.109-10.518 6.145-12.474Zm316.164 26.37c-2.841-5.024-6.932-12.044-11.638-7.305-1.829 1.838-3.712 9.516-4.95 12.399-4.336 10.09-8.943 21.356-18.082 28.115-5.469 4.044-24.532 10.574-19.749-1.769 4.078-10.531 17.587-19.855 25.734-27.494 3.776-3.542 12.74-10.813 14.706-15.952 1.498-3.918-2.106-13.136-8.577-11.055-2.937.946-3.317 9.521-4.391 11.963-1.699 3.856-4.697 6.878-7.349 10.083-4.202 5.082-8.645 12.532-15.237 14.926-7.926 2.882-10.374-1.754-6.299-8.865 3.985-6.948 12.991-11.422 18.5-17.125 2.741-2.839 11.374-11.143 9.278-15.387-4.565-9.242-10.94 4.278-13.209 7.026-1.778 2.149-12.567 16.024-15.934 13.374-4.047-3.184 5.016-16.012 6.685-18.752 3.521-5.783 5.059-5.459.602-8.547-2.545-1.768-7.852-3.284-10.666-2.884-6.907.979-13.973 7.347-21.094 9.035-2.947.701-12.987.544-14.203 5.051-1.873 6.938 28.329 23.566 12.416 27.35-12.299 2.92-23.862-16.106-33.973-8.279-15.978 12.375 9.394 19.904 19.141 22.469 4.37 1.152 18.761 1.651 16.659 9.37-1.711 6.277-13.643 4.893-18.243 4.122-8.715-1.457-16.604-5.673-24.752-8.804-2.199-.843-11.037-5.633-13.688-4.601-3.796 1.483-8.396 16.291-6.185 19.782 2.726 4.3 17.705 2.799 22.769 2.91 8.558.182 19.052-.127 26.345 5.198 8.051 5.877-1.901 6.794-7.402 6.557-11.868-.516-23.981-4.709-35.611-6.981-4.056-.795-10.095-2.954-14.125-2.401-6.103.842-4.818 1.264-2.309 6.243 5.596 11.112 11.278 12.362 23.658 13.225 5.647.39 30.354-2.856 32.297 4.671-6.07 4.773-20.795 2.163-27.959 2.061-5.242-.076-13.738 1.131-18.296-1.4-6.205-3.454-14.052-16.334-18.601-21.503-8.07-9.169-16.013-18.293-24.845-26.767 9.637 1.367 18.663 4.417 28.425 2.008 10.672-2.637 20.901-9.759 22.477-21.218.576-4.193-.123-8.497-.423-12.678-.098-1.336-.033-2.709-.193-4.042-.699-5.791-.216-7.678-4.2-3.486-4.532 4.771-7.68 15.63-15.473 17.649-8.63 2.238-4.002-4.222-.494-7.994 8.663-9.315 18.139-17.42 19.573-31.212.782-7.522.344-15.777-1.017-23.279-1.309-7.21-2.612-6.99-5.052-1.084-5.295 12.812-13.55 23.367-24.524 31.934-2.103 1.644-6.82 5.664-9.995 3.388-2.874-2.057-.786-5.95-.004-8.893 1.723-6.501 4.204-12.526 6.649-18.775 3.22-8.23 8.823-19.335 9.052-28.2.149-5.757-4.52-8.229-8.644-11.836-4.822-4.22-9.148-8.717-12.888-13.931-2.606-3.633-5.416-9.082-9.341-11.47-6.093-3.706-4.727.919-4.268 5.544.369 3.695 5.718 40.187-2.95 38.312-8.601-1.858-4.98-36.203-6.173-43.742-1.583-9.987-15.467-8.631-23.868-10.455-4.43-.964-8.489-1.469-12.691-3.1-1.591-.619-3.396-3.314-5.183-2.502-4.06 1.842 12.311 16.862 8.057 22.185-7.182 8.987-14.428-14.747-16.484-19.076-1.728-3.642-3.791-7.906-6.214-11.071-3.744-4.888-4.25-3.708-9.76-2.07-5.511 1.639-18.671 1.498-22.832 5.138-4.024 3.52 1.111 6.102 3.899 9.303 2.64 3.029 11.198 13.307 3.985 15.437-2.605.77-12.058-6.915-14.506-8.495-5.198-3.357-4.077-2.592-8.441-1.491-5.071 1.276-10.779 2.914-15.657 4.64-6.118 2.165-7.575 3.193-2.99 7.572 5.377 5.129 13.428 8.218 16.076 15.558 1.288 3.17.44 6.714-3.567 6.778-4.275.069-6.22-5.76-7.866-8.885-2.084-3.954-5.996-13.254-11.07-14.084-3.17-.52-7.082 3.305-9.765 4.694-1.588.821-8.74 2.953-9.315 5.157-.632 2.42 7.616 7.666 9.853 10.247 5.706 6.583 11.77 14.716 13.928 22.639 1.666 12.934-13.325-2.782-15.689-6.705-2.622-4.35-11.036-26.837-18.568-24.56-2.052.62-3.319 5.614-4.997 7.248-2.056 2.001-4.696 2.806-7.164 4.05-3.66 1.843-7.322 3.685-10.829 5.77-1.083.642-4.03 2.514-4.617 2.938-.442.321-1.42.11-1.957.513-3.669 2.76-5.381 8.342-8.727 11.697-1.502 1.506-8.177 5.617-7.686 7.75.448 1.944 32.224 3.469 36.985 3.996 3.62.4 18.821-.233 20.678 3.3 1.815 3.456-1.258 4.673-4.247 5.817-7.42 2.841-16.768 3.513-24.576 4.908-5.515.986-28.104 2.389-31.03 7.865-3.021 5.654.652 9.525 4.867 10.301 4.615.852 11.279-1.093 15.789-1.744 3.673-.529 27.12-6.333 28.325-.932 1.31 5.875-26.72 10.804-29.495 11.551-5.304 1.424-14.253 1.679-18.933 4.402-4.193 2.444-2.627 2.728-1.462 6.74 4.025 13.868 5.455 11.157 17.729 8.041 4.698-1.194 10.733-3.327 15.217-.754 5.357 3.069 5.066 6.915.275 9.563-3.292 1.822-10.163 2.251-13.85 2.789-4.308.63-8.674.847-13.024.896-1.279.015-6.873-.913-8.092-.091-4.786 3.226 6.791 20.033 11.789 20.688 2.425.319 6.367-1.334 8.775-1.8 8.415-1.637 16.973-2.504 25.42-4.06 4.756-.876 27.025-7.381 23.036 4.141-2.206 6.366-18.315 9.575-23.658 11.393a233.91 233.91 0 0 1-15.545 4.701c-4.904 1.298-7.761.766-4.495 6.187 3.326 5.518 23.13 22.35 29.347 21.816 5.102-.44 3.206-2.797 8.93.604 2.1 1.251 4.232 3.31 6.054 4.93 6.999 6.208 14.194 15.165 23.965 16.902 20.887 3.715 49.41-24.201 62.895-37.168 2.68-2.576 12.92-15.211 17.904-12.387 5.238 2.965-3.849 14.763-5.654 17.028-10.058 12.627-22.592 24.747-37.484 31.315-3.968 1.749-15.082 3.426-18.841 6.516-3.728 3.06.086 4.046 4.043 6.65 8.44 5.548 19.722 13.732 30.095 10.332 13.657-4.478 20.986-18.787 28.623-30.02 4.237-6.228 24.088-35.652 24.351-12.58.127 11.486-7.159 24.634-14.996 32.533-1.465 1.474-10.939 6.191-10.74 7.312.303 1.702 5.982 2.433 7.019 2.655 10.053 2.16 40.244 5.103 44.478-7.826 2.904-8.871-.635-23.045-1.883-31.965-.389-2.772-2.332-7.224 1.655-8.106 5.106-1.13 9.484 16.691 9.866 19.515.787 5.807-.089 11.857-2.291 17.846-.969 2.632-3.623 4.982-.161 5.394 1.255.148 8.277-6.529 9.378-7.644 5.6-5.694 5.98-12.108 5.522-19.657-1.244-20.371-10.73-40.232-21.764-57.174 13.193 13.67 25.781 27.823 37.963 42.403 3.044 3.643 5.183 8.1 8.186 11.616 4.333 5.069 9.667 9.191 14.175 14.604-1.327-.135-12.82-3.227-13.153-.1-.302 2.846 9.445 7.255 11.442 8.309 8.989 4.755 12.526 5.171 19.592 13.781 17.584 21.434 33.65 43.654 49.387 66.453 7.691 11.142 15.791 22.12 22.564 33.856 3.397 5.886 6.123 12.169 8.707 18.446 1.777 4.316 4.009 17.346 9.547 18.73 6.438 1.61 4.861-5.469 3.554-8.805-2.95-7.519-5.094-14.84-7.193-22.689-3.413-12.766-5.983-25.739-9.713-38.432-4.655-15.839-8.489-31.808-12.328-47.856-2.492-10.416-4.633-21.007-6.237-31.601-1.101-7.275-.825-15.067-2.778-22.197 7.608 6.85 6.127 19.227 18.832 20.111 9.819.686 16.914-7.231 22.531-14.217 4.58-5.697 11.164-14.307 12.053-21.792 1.06-8.931-6.433-2.543-12.017-.608-3.604 1.25-13.539 6.961-16.504 3.551-4.148-4.771 10.652-10.971 13.513-12.788 6.294-3.992 13.273-8.844 18.067-14.694 1.893-2.312 9.736-27.423 1.034-24.012-1.104.433-2.641 3.943-3.532 5.177-4.13 5.725-8.823 10.889-13.887 15.796-5.52 5.345-17.57 17.925-26.773 15.201 3.73-11.282 19.348-17.163 27.791-24.561 5.425-4.751 10.122-10 13.348-16.513 1.603-3.241 5.681-12.318 3.725-15.762Z" fill="#02362C"/></svg>