<svg width="231" height="370" fill="none" xmlns="http://www.w3.org/2000/svg"><path fill-rule="evenodd" clip-rule="evenodd" d="M147.611 129.316c-12.479-3.971-25.489-4.903-38.421-6.297 4.121-.908 8.582-2.122 12.779-2.588 3.862-.423 6.16 1.167 9.795 2.432 6.488 2.262 13.735 5.011 19.375 7.639-1.169-.414-2.346-.81-3.528-1.186Zm-17.772 4.959c-13.691-2.555-27.708-3.11-41.38-5.781 3.39-1.037 5.31-1.94 8.914-1.597 5.354.507 10.773 1.604 16.006 2.767 7.593 1.69 15.255 3.512 22.653 5.908a146.99 146.99 0 0 0-6.193-1.297Zm.658 2.67c-.937.378-4.221-.904-5.282-1.134 1.022.195 4.683 1.376 5.282 1.134Zm-27.259-.281a478.393 478.393 0 0 0-32.288-.95c1.927-.719 3.767-1.621 5.644-2.462 5.133-2.298 6.025-1.933 11.15-.422 6.608 1.95 13.379 3.06 20.156 4.188a139.722 139.722 0 0 0-4.662-.354Zm-12.502 6.171c-14.79 1.121-29.38 2.911-44.144 4.563 3.152-1.272 6.183-2.891 9.194-4.453 4.648-2.41 8.216-2.071 13.398-2.072 5.503-.004 10.909.642 16.38 1.263 1.35.155 6.635.587 5.172.699Zm-22.79-11.226c7.898-7.66 16.956-14.798 26.237-20.764 5.89-3.787 12.296-8.064 19.218-4.78-11.448.476-26.404 10.847-33.18 19.737-.325.421-.822.712-1.161 1.126-1.272 1.542.114 1.711-.752 2.659-.101.112-4.726 1.998-4.112 1.746-3.138 1.293-6.349 2.378-9.491 3.654a138.734 138.734 0 0 1 3.242-3.378Zm44.049-18.352c-7.772 6.493-16.204 9.949-25.566 13.207 8.55-5.492 17.122-9.985 26.519-13.918-.318.236-.636.472-.953.711Zm9.672 2.227c1.62-.519 2.343-.384 2.704 1.537-4.187-.158-6.175.415-10.131 1.374a57.525 57.525 0 0 1 7.427-2.911Zm5.137 1.048c-.291-.527-.416-1.534-.619-2.049 3.108-.051 5.748.606 8.388 2.234-.874.007-7.553.779-7.769-.185ZM.773 188.607c22.72-2.803 44.512-3.535 67.331-1.314-17.191 1.506-34.455 4.957-51.372 8.308-13.582 2.69-27.355 4.143-40.976 6.574 2.524-2.624 4.884-5.404 7.455-7.99 4.466-4.491 11.157-4.778 17.562-5.578Zm78.115 6.684c4.102-.42 8.194-.928 12.274-1.525 4.435-.655 11.509-3.575 15.972-2.696-24.364 7.226-50.693 10.556-75.74 14.629-10.41 1.692-21.01 4.167-31.095 7.306-14.561 4.531-30.985 4.509-44.882 10.873 4.25-4.45 8.905-10.814 13.747-14.432 3.519-2.632 9.356-2.851 13.543-3.403 6.894-.908 13.82-1.615 20.732-2.357 25.16-2.709 50.28-5.766 75.449-8.395Zm-127.41 24.1a189.642 189.642 0 0 0-5.968 6.886c3.51-16.442 3.352-33.782 5.329-50.474 1.118-9.438 2.167-18.982 3.67-28.357 1.33-8.28 1.683-19.56 6.127-26.712 3.316 3.077 5.767 6.342 5.108 10.815-.847 5.751-3.327 11.278-4.48 16.985-1.296 6.411-2.174 12.938-2.975 19.429-1.232 9.983-1.52 20.138-.992 30.176.143 2.822.324 5.641.544 8.458.097 1.229.734 3.323.463 4.473-.664 2.825-4.688 5.955-6.827 8.321Zm24.502-68.46c1.948-9.239 3.135-19.973 7.186-28.634 2.25-4.813 4.412-6.526 7.771-1.327 2.398 3.709-1.369 11.853-2.556 16.516-3.367 13.231-5.145 26.807-7.373 40.261-.581 3.525-.754 7.011-1.13 10.541-.313 2.925-.232 2.751-1.919 4.955-1.085 1.423-2.796 2.632-4.104 3.88-3.43 3.274-6.906 6.505-10.3 9.816 5.164-18.452 8.485-37.28 12.425-56.008Zm254.021 41.965c-3.129-4.157-7.097-7.905-11.156-11.117-5.624-4.455-12.51-7.06-18.126-11.344-4.723-3.606-8.624-8.405-13.451-12.057-7.667-5.796-15.559-10.617-24.538-14.099 11.436 3.898 22.403 8.59 31.563 16.679.774.685 7.484 9.266 8.872 8.447.95-.554-3.076-6.766-3.915-8.212-6.19-10.637-18.893-17.443-28.931-24.274-11.337-7.715-23.716-12.042-36.633-16.309 11.735.647 21.622 3.658 31.452 10.254 4.836 3.242 9.309 7.03 14.293 10.04 4.418 2.67 8.662 5.131 12.475 8.713 4.271 4.015 7.702 8.39 10.536 13.519 1.065 1.93 6.267 13.61 6.407 6.191.07-3.656-4.553-8.867-6.424-11.508-3.155-4.451-6.814-8.46-10.644-12.336-6.515-6.587-12.733-13.424-20.466-18.62-4.398-2.959-9.004-5.301-14.036-6.991-3.886-1.306-7.875-2.243-11.953-2.705-3.872-.437-4.245-.391-7.326-2.389-2.648-1.719-4.908-3.558-7.871-4.784-3.019-1.251-5.589-1.43-7.835-3.136-2.65-2.017-3.678-4.382-7.097-5.645-3.144-1.162-6.36-.906-9.64-.645-10.848.864-21.861 3.611-30.835 10.021-7.931 5.665-13.324 14.707-17.158 23.522-2.117 4.864-.68 4.682-6.365 7.478-5.977 2.94-11.92 5.83-17.734 9.11 9.587-11.904 17.923-25.084 28.434-36.241 5.62-5.959 11.132-12.015 16.751-17.97 1.659-1.756 14.76-14.397 7.402-13.949-1.702.103-4.261 2.375-5.825 3.12-3.12 1.497-6.22 2.823-9.105 4.779-5 3.39-9.082 7.608-13.172 11.994-10.593 11.362-20.141 23.516-25.029 38.435-1.158 3.531-1.58 7.511-3.394 10.75-1.278 2.286-2.778 3.075-5.372 4.763-4.449 2.89-8.773 5.862-12.986 9.093 10.773-15.938 17.722-33.774 26.21-50.935C48.297 92.473 53.292 67.71 62.475 44.912c1.781-4.422 3.95-9.288 6.94-13.052.909-1.145 3.782-2.86 4.033-4.304.663-3.807-1.918-2.785-3.814-1.69-4.645 2.682-9.155 8.732-12.33 12.81-4.619 5.932-9.297 12.367-13.299 18.758-13.785 22.011-22.925 46.99-30.516 71.713-3.572 11.622-7.256 23.436-9.013 35.488-.848 5.82.115 5.975-4.752 9.958-5.083 4.162-9.94 8.577-14.984 12.779 4.596-9.427 7.335-21.118 10.652-31.118 3.472-10.478 7.421-20.797 10.95-31.258 5.74-17.023 10.036-34.452 14.168-51.917a851.004 851.004 0 0 0 6.133-27.931c2.418-12.018 4.877-25.894 10.27-36.979.804-1.648 4.071-9.309-.657-6.67-2.166 1.206-4.733 9.1-5.839 11.227-6.264 12.087-11.54 24.36-16.255 37.122C5.805 72.478-.06 95.669-6.681 118.81c-3.31-4.515-10.183-9.484-16.122-7.563-5.334 1.727-7.958 9.312-9.636 14.064-.186-3.288-4.224-9.419-7.371-9.629-1.789-.12-4.87 1.573-6.366 2.28-3.698 1.746-7.898 3.955-10.205 7.392-4.726 7.052-3.83 18.119-4.67 26.279-2.5 24.338-2.052 47.838.702 72.076.63 5.547 1.39 8.119-1.77 12.491-3.607 4.995-7.086 9.906-10.638 14.595 1.141-2.172.11-8.81.097-11.126-.037-6.203.026-12.354.349-18.552.661-12.766-.025-25.961-.668-38.736-1.326-26.319-1.206-52.304-.317-78.617.186-5.546.06-11.056.027-16.598-.014-2.288.744-7.893-2.894-6.553-1.057.389-1.834 4.481-2.14 5.519-2.835 9.567-3.724 19.917-5.022 29.743-1.18 8.937-2.257 17.887-3.004 26.868-1.436 17.253-.962 34.006-.875 51.288.074 14.236 1.619 29.713 4.253 42.846 1.236 6.16 3.383 12.815 4.008 19.022.38 3.739-1.81 5.124-4.325 8.518-2.545 3.433-5.058 6.892-7.487 10.407.234-5.386-1.303-10.956-1.663-16.346-.302-4.502-.589-8.983-.995-13.482-.323-3.542-.627-7.087-.94-10.633-1.62-18.25-3.202-36.459-6.191-54.541-4.595-27.766-9.608-56.302-9.422-84.55.037-5.39.211-10.778.273-16.17.046-4.065-.328-8.097-.352-12.156-.012-2.07.932-6.072.241-8.135-1.999-5.967-3.732.701-3.787 3.442-.028 1.444-.115 2.883-.137 4.327-.134 9.07-.915 18.015-1.364 27.074-.643 13.063-.068 26.06.366 39.116.474 14.222.118 28.542 1.648 42.711 1.974 18.265 5.927 36.423 8.408 54.639 1.079 7.933 2.585 15.779 3.402 23.749.762 7.448 3.409 14.77 5.02 21.652l-.008-.528c.624 2.925 1.605 4.387.715 7.07-.627 1.886-2.348 3.868-3.38 5.6-2.197 3.684-4.307 7.411-6.418 11.145 1.871-9.478-.665-21.436-2.672-30.746-2.218-10.302-4.922-20.853-8.087-30.899-2.461-7.813-4.498-15.492-5.241-23.625-.99-10.831-3.939-21.246-5.524-31.977-1.496-10.131-4.014-20.162-6.161-30.191-.484-2.257-2.642-13.056-6.154-8.185-.865 1.202.196 4.394.332 5.636.334 3.076.542 6.104.68 9.193.897 19.611 5.008 39.518 8.23 58.839 2.059 12.346 4.24 24.735 7.249 36.885 2.343 9.46 3.609 19.289 6.208 28.617 1.247 4.474 2.514 9.047 4.506 13.248 1.733 3.655 3.481 4.677 2.869 8.616-.875 5.633-5.676 11.48-7.842 16.933-1.771 4.458-3.578 8.924-5.266 13.413a445.234 445.234 0 0 0-6.637 19.077c-1.201 3.7-3.53 8.476-3.748 12.239-.333 5.716 2.906 4.081 4.607.258 1.144-2.574 2.058-5.341 3.134-7.958 7.896-19.17 15.125-39.724 26.915-56.926 4.918-7.183 18.512-8.914 26.488-11.418 19.188-6.033 39.945-6.828 59.854-9.032 16.054-1.776 31.847-3.407 47.564-7.351 2.295-.574 44.188-12.896 43.137-15.044.587 1.205-45.832 11.525-49.55 11.829-11.656.949-23.277 1.204-34.96 1.697-29.222 1.236-57.965 1.937-84.517 15.73 3.35-5.265 7.358-15.203 13.24-17.241 11.336-3.934 23.283-6.474 34.703-10.31 11.872-3.982 24.063-6.65 36.005-10.339 11.928-3.687 23.83-7.505 35.94-10.605 12.171-3.115 24.745-6.363 37.393-5.962 4.868.155 9.75.586 14.598 1.044 1.83.172 16.4 2.863 8.522-.48-5.102-2.167-11.782-2.333-17.248-3.128-6.267-.909-12.275-1.716-18.61-1.667-13.794.107-27.65 3.337-40.984 6.534-15.958 3.823-32.57 7.618-47.802 13.77-13.96 5.64-27.992 11.054-41.953 16.623 2.538-3.882 5.239-7.648 7.88-11.46 1.283-1.855 2.636-4.865 4.458-6.132 2.78-1.934 8.628-2.437 11.857-3.511 12.99-4.315 26.04-9.382 39.351-12.592 21.403-5.162 43.314-8.364 64.85-12.958 12.569-2.678 25.878-5.042 38.729-4.814 4.834.088 9.675-.088 14.421.932 1.679.359 3.793 1.289 5.523 1.484 5.174.58 1.335-1.906-1.804-2.993-24.879-8.605-52.302-1.726-77.38 1.775-16.585 2.314-32.959 4.672-48.794 10.372-14.591 5.249-28.541 12.251-43.375 16.861 3.888-5.519 7.354-11.235 13.566-14.271 6.874-3.357 14.12-4.818 21.621-6.091 15.597-2.654 31.09-6.053 46.737-8.365 14.375-2.121 28.723-4.004 42.972-6.899 13.874-2.823 27.665-4.472 40.907-9.806 4.192-1.69 9.275-4.617 13.751-4.873 5.802-.33 12.827 1.406 18.516 2.267 13.856 2.092 28.239 4.25 41.048 10.109 12.568 5.75 21.102 14.786 30.723 24.233 3.031 2.981 6.013 6.012 9.036 9.001.673.666 4.69 5.669 5.518 5.733 5.124.383-4.542-9.762-6.21-11.841-11.527-14.366-24.001-26.347-40.959-34.173-14.452-6.672-29.561-11.011-45.321-13.232.04-2.846 11.651-2.987 11.97-5.935.421-3.932-7.704.002-9.314.486-3.058.917-6.032 2.064-9.105 2.932-7.055 1.992-14.862-.461-22.029-1.38-8.642-1.104-17.397-1.827-26.088-2.35-28.77-1.733-56.374-.779-84.319 6.922 5.015-4.388 10.246-8.558 15.546-12.595 2.063-1.571 3.636-3.011 5.974-3.748 3.948-1.246 8.636-.689 12.752-1.092 16.272-1.585 32.47-3.367 48.832-3.869 26.926-.826 55.001 4.003 80.537 12.554 12.457 4.173 24.679 8.232 35.497 15.914 2.504 1.776 4.731 3.815 7.007 5.868.941.848 6.686 7.018 6.978 6.986 2.491-.266-9.062-13.037-10.741-14.669-22.562-21.906-51.837-26.886-81.73-31.285-31.26-4.6-62.636-2.157-93.433 4.785 6.15-3.833 12.194-10.402 19.098-12.631 5.243-1.694 11.9-1.373 17.206-1.916 15.388-1.58 31.517 1.104 46.938 2.195 17.421 1.231 34.344 3.463 51.187 8.099 8.618 2.372 17.011 4.883 25.419 7.964 6.664 2.442 12.101 3.945 17.493 8.406 2.175 1.817 8.645 6.639 12.146 9.918 1.428 1.34 2.907 4.169 4.521 4.841 6.012 2.506-1.967-7.279-3.277-8.978 4.779 2.852 9.24 6.154 13.483 9.67.839.698 1.642 1.23 2.492 1.867.998.75 1.52 2.939 3.228 2.209 1.391-.597.897-2.029.233-2.934Z" fill="#012A32"/></svg>